<svg width="107" height="17" viewBox="0 0 107 17" fill="none" xmlns="http://www.w3.org/2000/svg">
<path d="M100.655 0H6.34521C0.289701 0 0 4 0 4H107C107 4 107 0 100.655 0Z" fill="url(#paint0_linear_4382_13322)"/>
<path d="M53.3453 9.86629L11.9214 12V1.19488C11.9214 1.19488 11.9214 0 5.39491 0C-0.0885444 0 53.3453 0 53.3453 0C53.3453 0 108.836 0 101.296 0C94.7693 0 94.7693 1.19488 94.7693 1.19488V12L53.3453 9.86629Z" fill="#5384EA"/>
<path d="M12 7H94.8V9C94.8 11.8003 94.8 13.2004 94.255 14.27C93.7757 15.2108 93.0108 15.9757 92.07 16.455C91.0004 17 89.6003 17 86.8 17H20C17.1997 17 15.7996 17 14.73 16.455C13.7892 15.9757 13.0243 15.2108 12.545 14.27C12 13.2004 12 11.8003 12 9V7Z" fill="#5384EA"/>
<path d="M20.3997 12.1C19.6931 12.1 19.0531 11.9467 18.4797 11.64C17.9131 11.3267 17.4664 10.8967 17.1397 10.35C16.8197 9.80333 16.6597 9.18667 16.6597 8.5C16.6597 7.81333 16.8231 7.19667 17.1497 6.65C17.4764 6.10333 17.9231 5.67667 18.4897 5.37C19.0631 5.05667 19.7031 4.9 20.4097 4.9C20.9831 4.9 21.5064 5 21.9797 5.2C22.4531 5.4 22.8531 5.69 23.1797 6.07L22.3397 6.86C21.8331 6.31333 21.2097 6.04 20.4697 6.04C19.9897 6.04 19.5597 6.14667 19.1797 6.36C18.7997 6.56667 18.5031 6.85667 18.2897 7.23C18.0764 7.60333 17.9697 8.02667 17.9697 8.5C17.9697 8.97333 18.0764 9.39667 18.2897 9.77C18.5031 10.1433 18.7997 10.4367 19.1797 10.65C19.5597 10.8567 19.9897 10.96 20.4697 10.96C21.2097 10.96 21.8331 10.6833 22.3397 10.13L23.1797 10.93C22.8531 11.31 22.4497 11.6 21.9697 11.8C21.4964 12 20.9731 12.1 20.3997 12.1ZM26.91 12.07C26.37 12.07 25.8834 11.9533 25.45 11.72C25.0167 11.4867 24.6767 11.1633 24.43 10.75C24.19 10.33 24.07 9.85667 24.07 9.33C24.07 8.80333 24.19 8.33333 24.43 7.92C24.6767 7.50667 25.0167 7.18333 25.45 6.95C25.8834 6.71667 26.37 6.6 26.91 6.6C27.4567 6.6 27.9467 6.71667 28.38 6.95C28.8134 7.18333 29.15 7.50667 29.39 7.92C29.6367 8.33333 29.76 8.80333 29.76 9.33C29.76 9.85667 29.6367 10.33 29.39 10.75C29.15 11.1633 28.8134 11.4867 28.38 11.72C27.9467 11.9533 27.4567 12.07 26.91 12.07ZM26.91 11C27.37 11 27.75 10.8467 28.05 10.54C28.35 10.2333 28.5 9.83 28.5 9.33C28.5 8.83 28.35 8.42667 28.05 8.12C27.75 7.81333 27.37 7.66 26.91 7.66C26.45 7.66 26.07 7.81333 25.77 8.12C25.4767 8.42667 25.33 8.83 25.33 9.33C25.33 9.83 25.4767 10.2333 25.77 10.54C26.07 10.8467 26.45 11 26.91 11ZM38.0954 6.6C38.7687 6.6 39.302 6.79667 39.6954 7.19C40.0887 7.57667 40.2854 8.16 40.2854 8.94V12H39.0354V9.1C39.0354 8.63333 38.932 8.28333 38.7254 8.05C38.5187 7.81 38.222 7.69 37.8354 7.69C37.4154 7.69 37.0787 7.83 36.8254 8.11C36.572 8.38333 36.4454 8.77667 36.4454 9.29V12H35.1954V9.1C35.1954 8.63333 35.092 8.28333 34.8854 8.05C34.6787 7.81 34.382 7.69 33.9954 7.69C33.5687 7.69 33.2287 7.82667 32.9754 8.1C32.7287 8.37333 32.6054 8.77 32.6054 9.29V12L31.3554 12V6.66H32.5454V7.34C32.7454 7.1 32.9954 6.91667 33.2954 6.79C33.5954 6.66333 33.9287 6.6 34.2954 6.6C34.6954 6.6 35.0487 6.67667 35.3554 6.83C35.6687 6.97667 35.9154 7.19667 36.0954 7.49C36.3154 7.21 36.5987 6.99333 36.9454 6.84C37.292 6.68 37.6754 6.6 38.0954 6.6ZM42.2827 6.66H43.5327V12H42.2827V6.66ZM42.9127 5.78C42.686 5.78 42.496 5.71 42.3427 5.57C42.1894 5.42333 42.1127 5.24333 42.1127 5.03C42.1127 4.81667 42.1894 4.64 42.3427 4.5C42.496 4.35333 42.686 4.28 42.9127 4.28C43.1394 4.28 43.3294 4.35 43.4827 4.49C43.636 4.62333 43.7127 4.79333 43.7127 5C43.7127 5.22 43.636 5.40667 43.4827 5.56C43.336 5.70667 43.146 5.78 42.9127 5.78ZM48.6033 6.6C49.2767 6.6 49.8167 6.79667 50.2233 7.19C50.63 7.58333 50.8333 8.16667 50.8333 8.94V12H49.5833V9.1C49.5833 8.63333 49.4733 8.28333 49.2533 8.05C49.0333 7.81 48.72 7.69 48.3133 7.69C47.8533 7.69 47.49 7.83 47.2233 8.11C46.9567 8.38333 46.8233 8.78 46.8233 9.3V12H45.5733V6.66H46.7633V7.35C46.97 7.10333 47.23 6.91667 47.5433 6.79C47.8567 6.66333 48.21 6.6 48.6033 6.6ZM58.1679 6.66V11.19C58.1679 13.07 57.2079 14.01 55.2879 14.01C54.7745 14.01 54.2879 13.9433 53.8279 13.81C53.3679 13.6833 52.9879 13.4967 52.6879 13.25L53.2479 12.31C53.4812 12.5033 53.7745 12.6567 54.1279 12.77C54.4879 12.89 54.8512 12.95 55.2179 12.95C55.8045 12.95 56.2345 12.8167 56.5079 12.55C56.7812 12.2833 56.9179 11.8767 56.9179 11.33V11.05C56.7045 11.2833 56.4445 11.46 56.1379 11.58C55.8312 11.7 55.4945 11.76 55.1279 11.76C54.6212 11.76 54.1612 11.6533 53.7479 11.44C53.3412 11.22 53.0179 10.9133 52.7779 10.52C52.5445 10.1267 52.4279 9.67667 52.4279 9.17C52.4279 8.66333 52.5445 8.21667 52.7779 7.83C53.0179 7.43667 53.3412 7.13333 53.7479 6.92C54.1612 6.70667 54.6212 6.6 55.1279 6.6C55.5145 6.6 55.8645 6.66333 56.1779 6.79C56.4979 6.91667 56.7645 7.11 56.9779 7.37V6.66H58.1679ZM55.3179 10.7C55.7912 10.7 56.1779 10.56 56.4779 10.28C56.7845 9.99333 56.9379 9.62333 56.9379 9.17C56.9379 8.72333 56.7845 8.36 56.4779 8.08C56.1779 7.8 55.7912 7.66 55.3179 7.66C54.8379 7.66 54.4445 7.8 54.1379 8.08C53.8379 8.36 53.6879 8.72333 53.6879 9.17C53.6879 9.62333 53.8379 9.99333 54.1379 10.28C54.4445 10.56 54.8379 10.7 55.3179 10.7ZM65.6649 12.1C65.1249 12.1 64.6015 12.0233 64.0949 11.87C63.5949 11.7167 63.1982 11.5133 62.9049 11.26L63.3549 10.25C63.6415 10.4767 63.9915 10.6633 64.4049 10.81C64.8249 10.95 65.2449 11.02 65.6649 11.02C66.1849 11.02 66.5715 10.9367 66.8249 10.77C67.0849 10.6033 67.2149 10.3833 67.2149 10.11C67.2149 9.91 67.1415 9.74667 66.9949 9.62C66.8549 9.48667 66.6749 9.38333 66.4549 9.31C66.2349 9.23667 65.9349 9.15333 65.5549 9.06C65.0215 8.93333 64.5882 8.80667 64.2549 8.68C63.9282 8.55333 63.6449 8.35667 63.4049 8.09C63.1715 7.81667 63.0549 7.45 63.0549 6.99C63.0549 6.60333 63.1582 6.25333 63.3649 5.94C63.5782 5.62 63.8949 5.36667 64.3149 5.18C64.7415 4.99333 65.2615 4.9 65.8749 4.9C66.3015 4.9 66.7215 4.95333 67.1349 5.06C67.5482 5.16667 67.9049 5.32 68.2049 5.52L67.7949 6.53C67.4882 6.35 67.1682 6.21333 66.8349 6.12C66.5015 6.02667 66.1782 5.98 65.8649 5.98C65.3515 5.98 64.9682 6.06667 64.7149 6.24C64.4682 6.41333 64.3449 6.64333 64.3449 6.93C64.3449 7.13 64.4149 7.29333 64.5549 7.42C64.7015 7.54667 64.8849 7.64667 65.1049 7.72C65.3249 7.79333 65.6249 7.87667 66.0049 7.97C66.5249 8.09 66.9515 8.21667 67.2849 8.35C67.6182 8.47667 67.9015 8.67333 68.1349 8.94C68.3749 9.20667 68.4949 9.56667 68.4949 10.02C68.4949 10.4067 68.3882 10.7567 68.1749 11.07C67.9682 11.3833 67.6515 11.6333 67.2249 11.82C66.7982 12.0067 66.2782 12.1 65.6649 12.1ZM72.4639 12.07C71.9239 12.07 71.4373 11.9533 71.0039 11.72C70.5706 11.4867 70.2306 11.1633 69.9839 10.75C69.7439 10.33 69.6239 9.85667 69.6239 9.33C69.6239 8.80333 69.7439 8.33333 69.9839 7.92C70.2306 7.50667 70.5706 7.18333 71.0039 6.95C71.4373 6.71667 71.9239 6.6 72.4639 6.6C73.0106 6.6 73.5006 6.71667 73.9339 6.95C74.3673 7.18333 74.7039 7.50667 74.9439 7.92C75.1906 8.33333 75.3139 8.80333 75.3139 9.33C75.3139 9.85667 75.1906 10.33 74.9439 10.75C74.7039 11.1633 74.3673 11.4867 73.9339 11.72C73.5006 11.9533 73.0106 12.07 72.4639 12.07ZM72.4639 11C72.9239 11 73.3039 10.8467 73.6039 10.54C73.9039 10.2333 74.0539 9.83 74.0539 9.33C74.0539 8.83 73.9039 8.42667 73.6039 8.12C73.3039 7.81333 72.9239 7.66 72.4639 7.66C72.0039 7.66 71.6239 7.81333 71.3239 8.12C71.0306 8.42667 70.8839 8.83 70.8839 9.33C70.8839 9.83 71.0306 10.2333 71.3239 10.54C71.6239 10.8467 72.0039 11 72.4639 11ZM79.3093 12.07C78.7693 12.07 78.2826 11.9533 77.8493 11.72C77.4159 11.4867 77.0759 11.1633 76.8293 10.75C76.5893 10.33 76.4693 9.85667 76.4693 9.33C76.4693 8.80333 76.5893 8.33333 76.8293 7.92C77.0759 7.50667 77.4159 7.18333 77.8493 6.95C78.2826 6.71667 78.7693 6.6 79.3093 6.6C79.8559 6.6 80.3459 6.71667 80.7793 6.95C81.2126 7.18333 81.5493 7.50667 81.7893 7.92C82.0359 8.33333 82.1593 8.80333 82.1593 9.33C82.1593 9.85667 82.0359 10.33 81.7893 10.75C81.5493 11.1633 81.2126 11.4867 80.7793 11.72C80.3459 11.9533 79.8559 12.07 79.3093 12.07ZM79.3093 11C79.7693 11 80.1493 10.8467 80.4493 10.54C80.7493 10.2333 80.8993 9.83 80.8993 9.33C80.8993 8.83 80.7493 8.42667 80.4493 8.12C80.1493 7.81333 79.7693 7.66 79.3093 7.66C78.8493 7.66 78.4693 7.81333 78.1693 8.12C77.8759 8.42667 77.7293 8.83 77.7293 9.33C77.7293 9.83 77.8759 10.2333 78.1693 10.54C78.4693 10.8467 78.8493 11 79.3093 11ZM86.7846 6.6C87.4579 6.6 87.9979 6.79667 88.4046 7.19C88.8112 7.58333 89.0146 8.16667 89.0146 8.94V12H87.7646V9.1C87.7646 8.63333 87.6546 8.28333 87.4346 8.05C87.2146 7.81 86.9012 7.69 86.4946 7.69C86.0346 7.69 85.6712 7.83 85.4046 8.11C85.1379 8.38333 85.0046 8.78 85.0046 9.3V12H83.7546V6.66H84.9446V7.35C85.1512 7.10333 85.4112 6.91667 85.7246 6.79C86.0379 6.66333 86.3912 6.6 86.7846 6.6Z" fill="white"/>
<defs>
<linearGradient id="paint0_linear_4382_13322" x1="53.5" y1="0" x2="53.5" y2="4" gradientUnits="userSpaceOnUse">
<stop stop-color="#FFB171"/>
<stop offset="1" stop-color="#FF943D"/>
</linearGradient>
</defs>
</svg>
