<svg width="136" height="19" viewBox="0 0 136 19" fill="none" xmlns="http://www.w3.org/2000/svg">
<path d="M127.935 0H8.06494C0.368217 0 0 4 0 4H136C136 4 136 0 127.935 0Z" fill="#282828" fill-opacity="0.4"/>
<path fill-rule="evenodd" clip-rule="evenodd" d="M12.0528 10.9806L11.4902 11V1.09531C11.4902 1.09531 11.4902 0 2.5415 0H68.288H134.034C125.086 0 125.086 1.09531 125.086 1.09531V11L124.947 10.9952C124.88 12.3067 124.729 13.2448 124.391 14.0615C123.579 16.0217 122.022 17.5791 120.061 18.391C118.591 19 116.728 19 113 19H24C20.2725 19 18.4087 19 16.9386 18.391C14.9783 17.5791 13.4209 16.0217 12.609 14.0615C12.2695 13.2418 12.1192 12.2998 12.0528 10.9806Z" fill="#282828"/>
</svg>
