<svg width="150" height="60" viewBox="0 0 150 60" fill="none" xmlns="http://www.w3.org/2000/svg">
<rect x="0.5" y="0.5" width="149" height="59" rx="19.5" fill="#28B8E2" fill-opacity="0.1" stroke="#28B8E2"/>
<path d="M64.914 25.9C66.0927 25.9 67.02 26.1817 67.696 26.745C68.372 27.3083 68.71 28.084 68.71 29.072C68.71 30.06 68.372 30.8357 67.696 31.399C67.02 31.9623 66.0927 32.244 64.914 32.244H62.665V35H61.365V25.9H64.914ZM64.875 31.113C65.6983 31.113 66.3267 30.9397 66.76 30.593C67.1933 30.2377 67.41 29.7307 67.41 29.072C67.41 28.4133 67.1933 27.9107 66.76 27.564C66.3267 27.2087 65.6983 27.031 64.875 27.031H62.665V31.113H64.875ZM72.0396 29.267C72.2563 28.8683 72.577 28.565 73.0016 28.357C73.4263 28.149 73.942 28.045 74.5486 28.045V29.254C74.4793 29.2453 74.384 29.241 74.2626 29.241C73.5866 29.241 73.0536 29.4447 72.6636 29.852C72.2823 30.2507 72.0916 30.8227 72.0916 31.568V35H70.8436V28.11H72.0396V29.267ZM76.6068 28.11H77.8548V35H76.6068V28.11ZM77.2308 26.784C76.9881 26.784 76.7845 26.706 76.6198 26.55C76.4638 26.394 76.3858 26.2033 76.3858 25.978C76.3858 25.7527 76.4638 25.562 76.6198 25.406C76.7845 25.2413 76.9881 25.159 77.2308 25.159C77.4735 25.159 77.6728 25.237 77.8288 25.393C77.9935 25.5403 78.0758 25.7267 78.0758 25.952C78.0758 26.186 77.9935 26.3853 77.8288 26.55C77.6728 26.706 77.4735 26.784 77.2308 26.784ZM86.8546 28.11L83.8386 35H82.5646L79.5486 28.11H80.8486L83.2146 33.635L85.6326 28.11H86.8546ZM90.8325 28.045C91.7859 28.045 92.5139 28.279 93.0165 28.747C93.5279 29.215 93.7835 29.9127 93.7835 30.84V35H92.6005V34.09C92.3925 34.4107 92.0935 34.6577 91.7035 34.831C91.3222 34.9957 90.8672 35.078 90.3385 35.078C89.5672 35.078 88.9475 34.8917 88.4795 34.519C88.0202 34.1463 87.7905 33.6567 87.7905 33.05C87.7905 32.4433 88.0115 31.958 88.4535 31.594C88.8955 31.2213 89.5975 31.035 90.5595 31.035H92.5355V30.788C92.5355 30.2507 92.3795 29.839 92.0675 29.553C91.7555 29.267 91.2962 29.124 90.6895 29.124C90.2822 29.124 89.8835 29.1933 89.4935 29.332C89.1035 29.462 88.7742 29.6397 88.5055 29.865L87.9855 28.929C88.3409 28.643 88.7655 28.4263 89.2595 28.279C89.7535 28.123 90.2779 28.045 90.8325 28.045ZM90.5465 34.116C91.0232 34.116 91.4349 34.012 91.7815 33.804C92.1282 33.5873 92.3795 33.284 92.5355 32.894V31.932H90.6115C89.5542 31.932 89.0255 32.2873 89.0255 32.998C89.0255 33.3447 89.1599 33.6177 89.4285 33.817C89.6972 34.0163 90.0699 34.116 90.5465 34.116ZM100.487 34.597C100.305 34.753 100.08 34.8743 99.8111 34.961C99.5424 35.039 99.2651 35.078 98.9791 35.078C98.2857 35.078 97.7484 34.8917 97.3671 34.519C96.9857 34.1463 96.7951 33.6133 96.7951 32.92V29.137H95.6251V28.11H96.7951V26.602H98.0431V28.11H100.019V29.137H98.0431V32.868C98.0431 33.2407 98.1341 33.5267 98.3161 33.726C98.5067 33.9253 98.7754 34.025 99.1221 34.025C99.5034 34.025 99.8284 33.9167 100.097 33.7L100.487 34.597ZM108.514 31.594C108.514 31.6893 108.506 31.815 108.488 31.971H102.898C102.976 32.5777 103.241 33.0673 103.691 33.44C104.151 33.804 104.718 33.986 105.394 33.986C106.218 33.986 106.881 33.7087 107.383 33.154L108.072 33.96C107.76 34.324 107.37 34.6013 106.902 34.792C106.443 34.9827 105.927 35.078 105.355 35.078C104.627 35.078 103.982 34.9307 103.418 34.636C102.855 34.3327 102.417 33.9123 102.105 33.375C101.802 32.8377 101.65 32.231 101.65 31.555C101.65 30.8877 101.798 30.2853 102.092 29.748C102.396 29.2107 102.807 28.7947 103.327 28.5C103.856 28.1967 104.45 28.045 105.108 28.045C105.767 28.045 106.352 28.1967 106.863 28.5C107.383 28.7947 107.786 29.2107 108.072 29.748C108.367 30.2853 108.514 30.9007 108.514 31.594ZM105.108 29.098C104.51 29.098 104.008 29.28 103.6 29.644C103.202 30.008 102.968 30.4847 102.898 31.074H107.318C107.249 30.4933 107.011 30.021 106.603 29.657C106.205 29.2843 105.706 29.098 105.108 29.098ZM119.03 35.104C118.12 35.104 117.296 34.9047 116.56 34.506C115.832 34.0987 115.26 33.544 114.844 32.842C114.428 32.1313 114.22 31.334 114.22 30.45C114.22 29.566 114.428 28.773 114.844 28.071C115.26 27.3603 115.836 26.8057 116.573 26.407C117.309 25.9997 118.133 25.796 119.043 25.796C119.753 25.796 120.403 25.9173 120.993 26.16C121.582 26.394 122.085 26.745 122.501 27.213L121.656 28.032C120.971 27.3127 120.117 26.953 119.095 26.953C118.419 26.953 117.808 27.1047 117.262 27.408C116.716 27.7113 116.287 28.1317 115.975 28.669C115.671 29.1977 115.52 29.7913 115.52 30.45C115.52 31.1087 115.671 31.7067 115.975 32.244C116.287 32.7727 116.716 33.1887 117.262 33.492C117.808 33.7953 118.419 33.947 119.095 33.947C120.109 33.947 120.962 33.583 121.656 32.855L122.501 33.674C122.085 34.142 121.578 34.4973 120.98 34.74C120.39 34.9827 119.74 35.104 119.03 35.104ZM127.113 28.045C128.067 28.045 128.795 28.279 129.297 28.747C129.809 29.215 130.064 29.9127 130.064 30.84V35H128.881V34.09C128.673 34.4107 128.374 34.6577 127.984 34.831C127.603 34.9957 127.148 35.078 126.619 35.078C125.848 35.078 125.228 34.8917 124.76 34.519C124.301 34.1463 124.071 33.6567 124.071 33.05C124.071 32.4433 124.292 31.958 124.734 31.594C125.176 31.2213 125.878 31.035 126.84 31.035H128.816V30.788C128.816 30.2507 128.66 29.839 128.348 29.553C128.036 29.267 127.577 29.124 126.97 29.124C126.563 29.124 126.164 29.1933 125.774 29.332C125.384 29.462 125.055 29.6397 124.786 29.865L124.266 28.929C124.622 28.643 125.046 28.4263 125.54 28.279C126.034 28.123 126.559 28.045 127.113 28.045ZM126.827 34.116C127.304 34.116 127.716 34.012 128.062 33.804C128.409 33.5873 128.66 33.284 128.816 32.894V31.932H126.892C125.835 31.932 125.306 32.2873 125.306 32.998C125.306 33.3447 125.441 33.6177 125.709 33.817C125.978 34.0163 126.351 34.116 126.827 34.116ZM134.09 29.267C134.306 28.8683 134.627 28.565 135.052 28.357C135.476 28.149 135.992 28.045 136.599 28.045V29.254C136.529 29.2453 136.434 29.241 136.313 29.241C135.637 29.241 135.104 29.4447 134.714 29.852C134.332 30.2507 134.142 30.8227 134.142 31.568V35H132.894V28.11H134.09V29.267Z" fill="#535353"/>
<rect x="12" y="12" width="36" height="36" rx="8" fill="url(#paint0_linear_270_366)"/>
<g clip-path="url(#clip0_270_366)">
<path d="M21.0788 27.3375C20.5267 27.1103 20.0534 26.9124 19.5771 26.7216C19.2209 26.5787 18.9483 26.3609 19.0083 25.8456C19.0841 25.191 19.3675 24.8163 19.8349 24.8022C20.5228 24.7823 21.2126 24.7835 21.9004 24.8022C22.175 24.8092 22.3108 24.7027 22.3905 24.3818C22.5804 23.6159 22.7959 22.8594 23.0114 22.1029C23.2309 21.3312 23.6068 21.0045 24.2937 21.0033C28.098 20.9998 31.9023 20.9986 35.7067 21.0021C36.3994 21.0021 36.7635 21.3218 36.9869 22.1029C37.2034 22.8594 37.4209 23.6159 37.6108 24.3806C37.6905 24.6991 37.8194 24.8104 38.0979 24.7999C38.7366 24.7764 39.3772 24.787 40.0158 24.794C40.6092 24.7999 40.9123 25.1207 40.992 25.8421C41.0569 26.4265 40.7165 26.6056 40.3317 26.7532C39.8849 26.9242 39.4461 27.1267 38.9294 27.3469C39.3575 27.8001 39.7167 28.1947 40.0886 28.5718C40.5236 29.0121 40.7519 29.5274 40.7411 30.2418C40.7066 32.5429 40.7155 34.8452 40.7047 37.1463C40.7007 37.8712 40.5138 38.1019 39.9233 38.1066C39.1853 38.1124 38.4472 38.1136 37.7092 38.1042C37.1719 38.0984 36.9958 37.8911 36.9751 37.2775C36.9443 36.3367 36.5372 35.8663 35.7539 35.8663C31.7035 35.8663 27.6532 35.8757 23.6038 35.8523C23.1207 35.8499 23.0016 36.0221 23.0114 36.576C23.04 38.1054 23.0193 38.1066 21.7469 38.1066C21.2224 38.1066 20.6979 38.1077 20.1724 38.1066C19.4659 38.1042 19.2937 37.9087 19.2927 37.0877C19.2907 35.6438 19.2957 34.1999 19.2917 32.756C19.2898 31.9972 19.3055 31.2348 19.2573 30.4795C19.1953 29.4923 19.5791 28.8154 20.201 28.2498C20.4844 27.9922 20.7393 27.6912 21.0778 27.3375H21.0788ZM36.9544 26.5623C36.6169 25.3643 36.3335 24.2506 35.9842 23.1674C35.8208 22.6603 35.4114 22.4156 34.9519 22.4144C31.6583 22.4074 28.3637 22.4074 25.0701 22.4144C24.6322 22.4144 24.2159 22.617 24.0555 23.0995C23.6865 24.2108 23.3893 25.3561 23.041 26.5623H36.9535H36.9544ZM37.5773 31.9819L37.5793 32.0089C37.9365 31.9784 38.2947 31.962 38.65 31.914C39.204 31.8391 39.4657 31.2126 39.3339 30.312C39.2551 29.7792 38.8842 29.5005 38.3744 29.6316C37.4209 29.8764 36.4723 30.1434 35.5207 30.3998C35.1497 30.4994 35.005 30.8226 35.0336 31.2196C35.067 31.688 35.3386 31.9573 35.7254 31.9749C36.3424 32.0018 36.9603 31.9819 37.5773 31.9819ZM23.0803 31.9187C23.0803 31.9456 23.0803 31.9726 23.0813 31.9995C23.5035 31.9702 23.9266 31.955 24.3478 31.9058C24.6843 31.866 24.9431 31.6716 24.9736 31.2313C25.0022 30.8156 24.825 30.5251 24.5023 30.3729C24.3822 30.3155 24.2523 30.2839 24.1244 30.2511C23.3175 30.045 22.5145 29.8049 21.7007 29.6562C21.434 29.607 20.9656 29.7007 20.8888 29.8951C20.7245 30.3144 20.6674 30.8624 20.7402 31.3168C20.7796 31.5604 21.1673 31.8496 21.4232 31.8906C21.9664 31.9784 22.5273 31.9175 23.0803 31.9175V31.9187Z" fill="white"/>
</g>
<defs>
<linearGradient id="paint0_linear_270_366" x1="30" y1="12" x2="30" y2="48" gradientUnits="userSpaceOnUse">
<stop stop-color="#5596FF"/>
<stop offset="1" stop-color="#91EBFF"/>
</linearGradient>
<clipPath id="clip0_270_366">
<rect width="22" height="17.1111" fill="white" transform="translate(19 21)"/>
</clipPath>
</defs>
</svg>
