<svg width="36" height="36" viewBox="0 0 36 36" fill="none" xmlns="http://www.w3.org/2000/svg">
<rect x="0.75" y="0.75" width="34.5" height="34.5" rx="17.25" fill="#5384EA" stroke="#5384EA" stroke-width="1.5" stroke-linecap="round"/>
<rect x="2.75" y="2.75" width="30.5" height="30.5" rx="15.25" stroke="white" stroke-width="1.5" stroke-linecap="round"/>
<path d="M17.9942 25.9966C15.2681 25.9966 12.5421 25.9966 9.81488 25.9966C9.56362 25.9966 9.31344 25.9871 9.0762 25.8974C8.3839 25.6377 8 25.0763 8 24.3165C8 22.1773 8 20.0381 8 17.9C8 16.8415 8 15.783 8 14.7245C8 14.4364 8.04529 14.1567 8.18116 13.8992C8.46369 13.3599 8.92739 13.0402 9.53558 13.0275C10.8846 12.999 12.2347 13.018 13.5848 13.017C13.6873 13.017 13.7574 13.0528 13.8199 13.1373C14.0485 13.4475 14.317 13.7219 14.6157 13.9668C14.6416 13.9879 14.6912 13.9984 14.6761 14.0417C14.6632 14.0807 14.6168 14.0744 14.5823 14.0755C14.4389 14.0776 14.2965 14.0786 14.1531 14.0786C12.6693 14.0786 11.1855 14.0871 9.70165 14.0733C9.26276 14.0691 9.02336 14.3615 9.06434 14.772C9.07728 14.9071 9.07728 15.0432 9.07836 15.1783C9.07836 18.1575 9.07836 21.1357 9.07836 24.1149C9.07836 24.2247 9.0762 24.3334 9.08159 24.4431C9.09453 24.7238 9.30589 24.936 9.59274 24.9571C9.66391 24.9623 9.73616 24.9602 9.80733 24.9602C15.2692 24.9602 20.73 24.956 26.1919 24.9666C26.7764 24.9676 26.9371 24.7122 26.936 24.2394C26.9263 21.0987 26.9317 17.958 26.9306 14.8174C26.9306 14.7044 26.9403 14.5905 26.9069 14.4786C26.8422 14.2591 26.661 14.1156 26.4281 14.1061C26.3343 14.1029 26.2405 14.104 26.1466 14.104C24.5873 14.1029 23.0269 14.1018 21.4676 14.1008C21.4245 14.1008 21.3673 14.1198 21.349 14.0681C21.3296 14.0132 21.3943 14.0016 21.4256 13.9741C21.706 13.7282 21.9572 13.456 22.1815 13.1594C22.2441 13.076 22.3109 13.0402 22.4155 13.0402C23.7343 13.0423 25.0521 13.0381 26.3709 13.0444C27.184 13.0486 27.8192 13.5689 27.9777 14.3456C28.0154 14.5314 27.9939 14.7203 27.9939 14.9081C27.9939 16.5576 27.9939 18.2061 27.9939 19.8555C27.9939 21.3826 27.996 22.9086 27.9982 24.4357C27.9982 25.185 27.4018 25.8604 26.6448 25.9702C26.5068 25.9902 26.3699 25.9987 26.2307 25.9987C23.4863 25.9987 20.743 25.9987 17.9986 25.9987L17.9942 25.9966Z" fill="white"/>
<path d="M14.2585 23.5507C13.3559 23.5507 12.4533 23.5507 11.5496 23.5507C11.4871 23.5507 11.4245 23.5518 11.362 23.5455C10.9468 23.498 10.7581 23.2521 10.8261 22.8468C10.9005 22.4025 10.9145 21.9487 11.0266 21.5118C11.2348 20.7024 11.7373 20.1357 12.5288 19.818C12.628 19.7779 12.7089 19.7811 12.8048 19.837C13.1855 20.0555 13.5996 20.1578 14.0406 20.1853C14.5874 20.2201 15.1201 20.1642 15.5967 19.8972C15.8491 19.7557 16.0345 19.8106 16.2513 19.9309C17.0482 20.3731 17.4946 21.0369 17.5841 21.9308C17.6165 22.2527 17.6499 22.5735 17.6823 22.8954C17.7222 23.2922 17.486 23.5486 17.0708 23.5497C16.1327 23.5518 15.1934 23.5497 14.2552 23.5497L14.2585 23.5507Z" fill="white"/>
<path d="M14.253 15.4807C15.4564 15.4648 16.3094 16.422 16.3159 17.4615C16.3234 18.6034 15.3939 19.491 14.2238 19.4878C13.0883 19.4846 12.2203 18.5032 12.2149 17.4921C12.2095 16.2606 13.2684 15.4648 14.2519 15.4817L14.253 15.4807Z" fill="white"/>
<path d="M22.2408 17.227C21.4633 17.227 20.6858 17.227 19.9083 17.227C19.7757 17.227 19.6506 17.2059 19.5374 17.1342C19.3432 17.0117 19.2473 16.788 19.299 16.579C19.353 16.3659 19.5363 16.2128 19.7692 16.1917C19.8048 16.1886 19.8404 16.1896 19.876 16.1896C21.431 16.1896 22.987 16.1896 24.542 16.1896C24.6973 16.1896 24.8461 16.2086 24.9723 16.3057C25.1545 16.445 25.2257 16.6614 25.1588 16.8661C25.0888 17.0824 24.9076 17.2207 24.6671 17.2249C24.363 17.2312 24.0589 17.227 23.7559 17.227C23.2512 17.227 22.7455 17.227 22.2408 17.227Z" fill="white"/>
<path d="M22.2443 22.8461C21.4668 22.8461 20.6893 22.8461 19.9118 22.8461C19.8493 22.8461 19.7857 22.8461 19.7253 22.8345C19.4589 22.7796 19.268 22.5432 19.2864 22.2984C19.3058 22.0462 19.5258 21.8372 19.8018 21.8119C19.846 21.8077 19.8913 21.8087 19.9355 21.8087C21.4679 21.8087 23.0002 21.8087 24.5326 21.8087C24.6361 21.8087 24.7386 21.815 24.8356 21.8499C25.061 21.9301 25.2141 22.1739 25.1839 22.3997C25.1505 22.6467 24.9575 22.8229 24.6954 22.844C24.6426 22.8482 24.5887 22.8461 24.5347 22.8461C23.7713 22.8461 23.0067 22.8461 22.2432 22.8461H22.2443Z" fill="white"/>
<path d="M22.252 20.0344C21.4659 20.0344 20.6797 20.0344 19.8947 20.0344C19.7275 20.0344 19.5723 19.9985 19.4526 19.8803C19.3188 19.7494 19.2541 19.5922 19.3037 19.4033C19.3555 19.2081 19.4881 19.0888 19.6779 19.0255C19.7588 18.998 19.844 18.998 19.9292 18.998C21.4702 18.998 23.0101 18.998 24.551 18.998C24.702 18.998 24.8433 19.0234 24.9673 19.1162C25.1441 19.2492 25.2283 19.4888 25.1657 19.6882C25.1032 19.8888 24.9145 20.0281 24.6783 20.0323C24.4065 20.0376 24.1337 20.0312 23.8609 20.0312C23.325 20.0312 22.789 20.0312 22.2531 20.0312V20.0333L22.252 20.0344Z" fill="white"/>
<mask id="mask0_1753_1609" style="mask-type:luminance" maskUnits="userSpaceOnUse" x="14" y="7" width="8" height="9">
<path d="M18.0033 14.5243C18.4411 14.5249 18.8747 14.4408 19.2792 14.2768C19.6837 14.1128 20.0511 13.8722 20.3603 13.5689C20.6702 13.2663 20.9161 12.9067 21.0836 12.5109C21.2512 12.115 21.3372 11.6906 21.3366 11.2622C21.3371 10.8337 21.2512 10.4093 21.0836 10.0135C20.9161 9.61763 20.6702 9.25808 20.3603 8.95549C20.0511 8.65212 19.6837 8.41153 19.2792 8.24755C18.8747 8.08358 18.4411 7.99945 18.0033 8C17.5654 7.99946 17.1318 8.08359 16.7273 8.24756C16.3228 8.41154 15.9554 8.65212 15.6463 8.95549C15.3363 9.25808 15.0904 9.61763 14.9229 10.0135C14.7553 10.4093 14.6694 10.8337 14.6699 11.2622C14.6694 11.6906 14.7553 12.115 14.9229 12.5109C15.0904 12.9067 15.3363 13.2663 15.6463 13.5689C15.9554 13.8722 16.3228 14.1128 16.7273 14.2768C17.1318 14.4408 17.5654 14.5249 18.0033 14.5243Z" fill="white" stroke="white" stroke-linejoin="round"/>
<path d="M16.6699 11.2638L17.6699 12.2425L19.6699 10.2852" stroke="black" stroke-linecap="round" stroke-linejoin="round"/>
</mask>
<g mask="url(#mask0_1753_1609)">
<path d="M14 7.3457H22V15.1749H14V7.3457Z" fill="white"/>
</g>
</svg>
