<svg width="36" height="36" viewBox="0 0 36 36" fill="none" xmlns="http://www.w3.org/2000/svg">
<rect x="0.75" y="0.75" width="34.5" height="34.5" rx="17.25" fill="#5384EA" stroke="#5384EA" stroke-width="1.5" stroke-linecap="round"/>
<rect x="2.75" y="2.75" width="30.5" height="30.5" rx="15.25" stroke="white" stroke-width="1.5" stroke-linecap="round"/>
<path d="M11.3333 26C11.3333 26 10 26 10 24.6667C10 23.3333 11.3333 19.3333 18 19.3333C24.6667 19.3333 26 23.3333 26 24.6667C26 26 24.6667 26 24.6667 26H11.3333ZM18 18C19.0609 18 20.0783 17.5786 20.8284 16.8284C21.5786 16.0783 22 15.0609 22 14C22 12.9391 21.5786 11.9217 20.8284 11.1716C20.0783 10.4214 19.0609 10 18 10C16.9391 10 15.9217 10.4214 15.1716 11.1716C14.4214 11.9217 14 12.9391 14 14C14 15.0609 14.4214 16.0783 15.1716 16.8284C15.9217 17.5786 16.9391 18 18 18Z" fill="white"/>
</svg>
